<svg width="800" height="450" viewBox="0 0 800 450" fill="none" xmlns="http://www.w3.org/2000/svg">
  <rect width="800" height="450" rx="8" fill="#18181b"/>
  <rect y="0" width="800" height="40" rx="8" fill="#27272a"/>
  <circle cx="20" cy="20" r="6" fill="#ef4444"/><circle cx="40" cy="20" r="6" fill="#eab308"/><circle cx="60" cy="20" r="6" fill="#22c55e"/>
  <rect x="200" y="12" width="400" height="16" rx="8" fill="#3f3f46"/>
  <rect x="30" y="70" width="160" height="350" rx="8" fill="#27272a"/>
  <rect x="50" y="100" width="120" height="12" rx="4" fill="#f472b6"/>
  <rect x="50" y="130" width="100" height="8" rx="4" fill="#3f3f46"/>
  <rect x="50" y="150" width="110" height="8" rx="4" fill="#3f3f46"/>
  <rect x="50" y="170" width="90" height="8" rx="4" fill="#3f3f46"/>
  <rect x="220" y="70" width="260" height="160" rx="8" fill="#27272a"/>
  <rect x="500" y="70" width="260" height="160" rx="8" fill="#27272a"/>
  <rect x="220" y="250" width="540" height="160" rx="8" fill="#27272a"/>
  <rect x="240" y="90" width="100" height="16" rx="4" fill="#a1a1aa"/>
  <rect x="240" y="120" width="220" height="80" rx="4" fill="#f472b6" opacity="0.2"/>
  <text x="400" y="340" text-anchor="middle" fill="#71717a" font-family="sans-serif" font-size="14">Dashboard Overview</text>
</svg>
