<svg width="800" height="450" viewBox="0 0 800 450" fill="none" xmlns="http://www.w3.org/2000/svg">
  <rect width="800" height="450" rx="8" fill="#18181b"/>
  <rect y="0" width="800" height="40" rx="8" fill="#27272a"/>
  <circle cx="20" cy="20" r="6" fill="#ef4444"/><circle cx="40" cy="20" r="6" fill="#eab308"/><circle cx="60" cy="20" r="6" fill="#22c55e"/>
  <rect x="30" y="60" width="300" height="24" rx="4" fill="#a1a1aa"/>
  <rect x="30" y="100" width="740" height="200" rx="8" fill="#27272a"/>
  <polyline points="60,260 160,200 260,230 360,160 460,180 560,120 660,150 740,100" fill="none" stroke="#f472b6" stroke-width="2.5"/>
  <circle cx="160" cy="200" r="4" fill="#f472b6"/><circle cx="360" cy="160" r="4" fill="#f472b6"/><circle cx="560" cy="120" r="4" fill="#f472b6"/>
  <rect x="30" y="320" width="360" height="110" rx="8" fill="#27272a"/>
  <rect x="410" y="320" width="360" height="110" rx="8" fill="#27272a"/>
  <rect x="50" y="340" width="80" height="70" rx="4" fill="#f472b6" opacity="0.4"/>
  <rect x="140" y="360" width="80" height="50" rx="4" fill="#f472b6" opacity="0.3"/>
  <rect x="230" y="350" width="80" height="60" rx="4" fill="#f472b6" opacity="0.5"/>
  <text x="400" y="420" text-anchor="middle" fill="#71717a" font-family="sans-serif" font-size="14">Analytics View</text>
</svg>
