<svg width="800" height="450" viewBox="0 0 800 450" fill="none" xmlns="http://www.w3.org/2000/svg">
  <rect width="800" height="450" rx="8" fill="#18181b"/>
  <rect y="0" width="800" height="40" rx="8" fill="#27272a"/>
  <circle cx="20" cy="20" r="6" fill="#ef4444"/><circle cx="40" cy="20" r="6" fill="#eab308"/><circle cx="60" cy="20" r="6" fill="#22c55e"/>
  <rect x="30" y="60" width="740" height="60" rx="8" fill="#27272a"/>
  <rect x="50" y="78" width="200" height="24" rx="4" fill="#f472b6" opacity="0.3"/>
  <rect x="30" y="140" width="230" height="280" rx="8" fill="#27272a"/>
  <rect x="280" y="140" width="230" height="280" rx="8" fill="#27272a"/>
  <rect x="530" y="140" width="230" height="280" rx="8" fill="#27272a"/>
  <rect x="50" y="160" width="190" height="120" rx="8" fill="#3f3f46"/>
  <rect x="300" y="160" width="190" height="120" rx="8" fill="#3f3f46"/>
  <rect x="550" y="160" width="190" height="120" rx="8" fill="#3f3f46"/>
  <rect x="50" y="300" width="120" height="12" rx="4" fill="#a1a1aa"/>
  <rect x="300" y="300" width="140" height="12" rx="4" fill="#a1a1aa"/>
  <rect x="550" y="300" width="100" height="12" rx="4" fill="#a1a1aa"/>
  <text x="400" y="400" text-anchor="middle" fill="#71717a" font-family="sans-serif" font-size="14">Design System Components</text>
</svg>
