<svg width="800" height="450" viewBox="0 0 800 450" fill="none" xmlns="http://www.w3.org/2000/svg">
  <rect width="800" height="450" rx="8" fill="#fafafa"/>
  <rect x="80" y="40" width="640" height="24" rx="4" fill="#18181b"/>
  <rect x="200" y="76" width="400" height="12" rx="4" fill="#a1a1aa"/>
  <rect x="60" y="120" width="200" height="260" rx="12" fill="#ffffff" stroke="#e5e5e5" stroke-width="1"/>
  <rect x="300" y="120" width="200" height="260" rx="12" fill="#ffffff" stroke="#e5e5e5" stroke-width="1"/>
  <rect x="540" y="120" width="200" height="260" rx="12" fill="#ffffff" stroke="#e11d73" stroke-width="2"/>
  <rect x="80" y="145" width="160" height="100" rx="8" fill="#f4f4f5"/>
  <rect x="320" y="145" width="160" height="100" rx="8" fill="#f4f4f5"/>
  <rect x="560" y="145" width="160" height="100" rx="8" fill="#fce7f3"/>
  <rect x="80" y="260" width="120" height="12" rx="4" fill="#18181b"/>
  <rect x="80" y="284" width="160" height="8" rx="4" fill="#a1a1aa"/>
  <rect x="80" y="340" width="160" height="30" rx="15" fill="#f4f4f5"/>
  <rect x="560" y="340" width="160" height="30" rx="15" fill="#e11d73"/>
  <text x="400" y="420" text-anchor="middle" fill="#a1a1aa" font-family="sans-serif" font-size="14">Pricing Section</text>
</svg>
