<svg width="800" height="450" viewBox="0 0 800 450" fill="none" xmlns="http://www.w3.org/2000/svg">
  <rect width="800" height="450" rx="8" fill="#fafafa"/>
  <rect y="0" width="800" height="56" fill="#ffffff"/>
  <rect x="30" y="18" width="80" height="20" rx="4" fill="#e11d73"/>
  <rect x="550" y="22" width="50" height="12" rx="4" fill="#d4d4d8"/>
  <rect x="620" y="22" width="50" height="12" rx="4" fill="#d4d4d8"/>
  <rect x="690" y="22" width="50" height="12" rx="4" fill="#d4d4d8"/>
  <rect x="100" y="120" width="300" height="28" rx="4" fill="#18181b"/>
  <rect x="100" y="160" width="250" height="16" rx="4" fill="#a1a1aa"/>
  <rect x="100" y="186" width="200" height="16" rx="4" fill="#a1a1aa"/>
  <rect x="100" y="230" width="120" height="40" rx="20" fill="#e11d73"/>
  <rect x="240" y="230" width="120" height="40" rx="20" fill="none" stroke="#e5e5e5" stroke-width="2"/>
  <rect x="480" y="80" width="280" height="220" rx="12" fill="#f4f4f5"/>
  <rect x="500" y="100" width="240" height="140" rx="8" fill="#e4e4e7"/>
  <text x="400" y="380" text-anchor="middle" fill="#a1a1aa" font-family="sans-serif" font-size="14">Landing Page Hero</text>
</svg>
