<svg width="800" height="450" viewBox="0 0 800 450" fill="none" xmlns="http://www.w3.org/2000/svg">
  <rect width="800" height="450" rx="8" fill="#f8fafc"/>
  <rect y="0" width="800" height="48" fill="#ffffff"/>
  <rect x="24" y="14" width="100" height="20" rx="4" fill="#0f172a"/>
  <rect x="280" y="14" width="240" height="20" rx="10" fill="#f1f5f9"/>
  <circle cx="660" cy="24" r="14" fill="#e11d73"/><circle cx="700" cy="24" r="14" fill="#e2e8f0"/>
  <rect x="24" y="72" width="180" height="32" rx="4" fill="#0f172a"/>
  <rect x="24" y="120" width="240" height="300" rx="12" fill="#ffffff" stroke="#e2e8f0" stroke-width="1"/>
  <rect x="284" y="120" width="240" height="300" rx="12" fill="#ffffff" stroke="#e2e8f0" stroke-width="1"/>
  <rect x="544" y="120" width="240" height="300" rx="12" fill="#ffffff" stroke="#e2e8f0" stroke-width="1"/>
  <rect x="40" y="136" width="208" height="120" rx="8" fill="#fce7f3"/>
  <rect x="300" y="136" width="208" height="120" rx="8" fill="#ede9fe"/>
  <rect x="560" y="136" width="208" height="120" rx="8" fill="#ecfdf5"/>
  <rect x="40" y="272" width="140" height="14" rx="4" fill="#0f172a"/>
  <rect x="40" y="296" width="208" height="8" rx="4" fill="#94a3b8"/>
  <text x="400" y="420" text-anchor="middle" fill="#94a3b8" font-family="sans-serif" font-size="14">Web Application</text>
</svg>
